<svg width="512" height="512" viewBox="0 0 512 512" fill="none" xmlns="http://www.w3.org/2000/svg">
<path d="M470.487 498.162H41.5136C34.1735 498.162 27.1341 495.246 21.9439 490.056C16.7537 484.866 13.8379 477.827 13.8379 470.487V159.135C13.8379 157.3 14.5668 155.54 15.8644 154.243C17.1619 152.945 18.9218 152.216 20.7568 152.216H491.243C493.078 152.216 494.838 152.945 496.136 154.243C497.433 155.54 498.162 157.3 498.162 159.135V470.487C498.162 477.827 495.246 484.866 490.056 490.056C484.866 495.246 477.827 498.162 470.487 498.162ZM27.6757 166.054V470.487C27.6757 474.157 29.1336 477.676 31.7287 480.271C34.3238 482.867 37.8435 484.324 41.5136 484.324H470.487C474.157 484.324 477.676 482.867 480.271 480.271C482.866 477.676 484.324 474.157 484.324 470.487V166.054H27.6757Z" fill="black"/>
<path d="M491.243 166.054H20.7568C18.9218 166.054 17.1619 165.325 15.8644 164.028C14.5668 162.73 13.8379 160.97 13.8379 159.135V83.027C13.8379 75.6869 16.7537 68.6475 21.9439 63.4573C27.1341 58.2671 34.1735 55.3513 41.5136 55.3513H103.784C105.619 55.3513 107.379 56.0803 108.676 57.3778C109.974 58.6754 110.703 60.4352 110.703 62.2702C110.703 64.1052 109.974 65.8651 108.676 67.1627C107.379 68.4602 105.619 69.1892 103.784 69.1892H41.5136C37.8435 69.1892 34.3238 70.6471 31.7287 73.2422C29.1336 75.8373 27.6757 79.357 27.6757 83.027V152.216H484.324V83.027C484.324 79.357 482.866 75.8373 480.271 73.2422C477.676 70.6471 474.157 69.1892 470.487 69.1892H408.216C406.381 69.1892 404.621 68.4602 403.324 67.1627C402.026 65.8651 401.297 64.1052 401.297 62.2702C401.297 60.4352 402.026 58.6754 403.324 57.3778C404.621 56.0803 406.381 55.3513 408.216 55.3513H470.487C477.827 55.3513 484.866 58.2671 490.056 63.4573C495.246 68.6475 498.162 75.6869 498.162 83.027V159.135C498.162 160.97 497.433 162.73 496.136 164.028C494.838 165.325 493.078 166.054 491.243 166.054Z" fill="black"/>
<path d="M366.703 69.1892H145.297C143.462 69.1892 141.702 68.4602 140.405 67.1627C139.107 65.8651 138.378 64.1052 138.378 62.2702C138.378 60.4352 139.107 58.6754 140.405 57.3778C141.702 56.0803 143.462 55.3513 145.297 55.3513H366.703C368.538 55.3513 370.298 56.0803 371.595 57.3778C372.893 58.6754 373.622 60.4352 373.622 62.2702C373.622 64.1052 372.893 65.8651 371.595 67.1627C370.298 68.4602 368.538 69.1892 366.703 69.1892Z" fill="black"/>
<path d="M387.459 106.828C380.119 106.828 373.08 103.912 367.89 98.7221C362.7 93.5319 359.784 86.4925 359.784 79.1525V41.5136C359.784 34.1735 362.7 27.1341 367.89 21.9439C373.08 16.7537 380.119 13.8379 387.459 13.8379C394.8 13.8379 401.839 16.7537 407.029 21.9439C412.219 27.1341 415.135 34.1735 415.135 41.5136V79.1525C415.135 86.4925 412.219 93.5319 407.029 98.7221C401.839 103.912 394.8 106.828 387.459 106.828V106.828ZM387.459 27.6757C383.789 27.6757 380.27 29.1336 377.675 31.7287C375.08 34.3238 373.622 37.8435 373.622 41.5136V79.1525C373.622 82.8225 375.08 86.3422 377.675 88.9373C380.27 91.5324 383.789 92.9903 387.459 92.9903C391.13 92.9903 394.649 91.5324 397.244 88.9373C399.839 86.3422 401.297 82.8225 401.297 79.1525V41.5136C401.297 37.8435 399.839 34.3238 397.244 31.7287C394.649 29.1336 391.13 27.6757 387.459 27.6757V27.6757Z" fill="black"/>
<path d="M124.541 106.828C117.2 106.828 110.161 103.912 104.971 98.7221C99.7807 93.5319 96.8649 86.4925 96.8649 79.1525V41.5136C96.8649 34.1735 99.7807 27.1341 104.971 21.9439C110.161 16.7537 117.2 13.8379 124.541 13.8379C131.881 13.8379 138.92 16.7537 144.11 21.9439C149.3 27.1341 152.216 34.1735 152.216 41.5136V79.1525C152.216 86.4925 149.3 93.5319 144.11 98.7221C138.92 103.912 131.881 106.828 124.541 106.828V106.828ZM124.541 27.6757C120.871 27.6757 117.351 29.1336 114.756 31.7287C112.161 34.3238 110.703 37.8435 110.703 41.5136V79.1525C110.703 82.8225 112.161 86.3422 114.756 88.9373C117.351 91.5324 120.871 92.9903 124.541 92.9903C128.211 92.9903 131.73 91.5324 134.325 88.9373C136.92 86.3422 138.378 82.8225 138.378 79.1525V41.5136C138.378 37.8435 136.92 34.3238 134.325 31.7287C131.73 29.1336 128.211 27.6757 124.541 27.6757V27.6757Z" fill="black"/>
<path d="M422.054 270.322H386.491C382.821 270.322 379.301 268.864 376.706 266.269C374.111 263.674 372.653 260.154 372.653 256.484V220.921C372.653 217.251 374.111 213.731 376.706 211.136C379.301 208.541 382.821 207.083 386.491 207.083H422.054C425.724 207.083 429.244 208.541 431.839 211.136C434.434 213.731 435.892 217.251 435.892 220.921V256.484C435.892 260.154 434.434 263.674 431.839 266.269C429.244 268.864 425.724 270.322 422.054 270.322ZM386.491 220.921V256.484H422.054V220.921H386.491Z" fill="black"/>
<path d="M323.183 270.322H287.619C283.949 270.322 280.43 268.864 277.835 266.269C275.24 263.674 273.782 260.154 273.782 256.484V220.921C273.782 217.251 275.24 213.731 277.835 211.136C280.43 208.541 283.949 207.083 287.619 207.083H323.183C326.853 207.083 330.372 208.541 332.968 211.136C335.563 213.731 337.021 217.251 337.021 220.921V256.484C337.021 260.154 335.563 263.674 332.968 266.269C330.372 268.864 326.853 270.322 323.183 270.322ZM287.619 220.921V256.484H323.183V220.921H287.619Z" fill="black"/>
<path d="M224.381 270.322H188.817C185.147 270.322 181.628 268.864 179.032 266.269C176.437 263.674 174.979 260.154 174.979 256.484V220.921C174.979 217.251 176.437 213.731 179.032 211.136C181.628 208.541 185.147 207.083 188.817 207.083H224.381C228.051 207.083 231.57 208.541 234.165 211.136C236.761 213.731 238.218 217.251 238.218 220.921V256.484C238.218 260.154 236.761 263.674 234.165 266.269C231.57 268.864 228.051 270.322 224.381 270.322ZM188.817 220.921V256.484H224.381V220.921H188.817Z" fill="black"/>
<path d="M422.054 356.809H386.491C382.821 356.809 379.301 355.351 376.706 352.756C374.111 350.161 372.653 346.641 372.653 342.971V307.408C372.653 303.738 374.111 300.218 376.706 297.623C379.301 295.028 382.821 293.57 386.491 293.57H422.054C425.724 293.57 429.244 295.028 431.839 297.623C434.434 300.218 435.892 303.738 435.892 307.408V342.971C435.892 346.641 434.434 350.161 431.839 352.756C429.244 355.351 425.724 356.809 422.054 356.809ZM386.491 307.408V342.971H422.054V307.408H386.491Z" fill="black"/>
<path d="M323.183 356.809H287.619C283.949 356.809 280.43 355.351 277.835 352.756C275.24 350.161 273.782 346.641 273.782 342.971V307.408C273.782 303.738 275.24 300.218 277.835 297.623C280.43 295.028 283.949 293.57 287.619 293.57H323.183C326.853 293.57 330.372 295.028 332.968 297.623C335.563 300.218 337.021 303.738 337.021 307.408V342.971C337.021 346.641 335.563 350.161 332.968 352.756C330.372 355.351 326.853 356.809 323.183 356.809ZM287.619 307.408V342.971H323.183V307.408H287.619Z" fill="black"/>
<path d="M224.381 356.809H188.817C185.147 356.809 181.628 355.351 179.032 352.756C176.437 350.161 174.979 346.641 174.979 342.971V307.408C174.979 303.738 176.437 300.218 179.032 297.623C181.628 295.028 185.147 293.57 188.817 293.57H224.381C228.051 293.57 231.57 295.028 234.165 297.623C236.761 300.218 238.218 303.738 238.218 307.408V342.971C238.218 346.641 236.761 350.161 234.165 352.756C231.57 355.351 228.051 356.809 224.381 356.809ZM188.817 307.408V342.971H224.381V307.408H188.817Z" fill="black"/>
<path d="M125.509 356.809H89.946C86.276 356.809 82.7563 355.351 80.1612 352.756C77.5661 350.161 76.1082 346.641 76.1082 342.971V307.408C76.1082 303.738 77.5661 300.218 80.1612 297.623C82.7563 295.028 86.276 293.57 89.946 293.57H125.509C129.179 293.57 132.699 295.028 135.294 297.623C137.889 300.218 139.347 303.738 139.347 307.408V342.971C139.347 346.641 137.889 350.161 135.294 352.756C132.699 355.351 129.179 356.809 125.509 356.809ZM89.946 307.408V342.971H125.509V307.408H89.946Z" fill="black"/>
<path d="M323.183 443.295H287.619C283.949 443.295 280.43 441.837 277.835 439.242C275.24 436.647 273.782 433.127 273.782 429.457V393.894C273.782 390.224 275.24 386.704 277.835 384.109C280.43 381.514 283.949 380.056 287.619 380.056H323.183C326.853 380.056 330.372 381.514 332.968 384.109C335.563 386.704 337.021 390.224 337.021 393.894V429.457C337.021 433.127 335.563 436.647 332.968 439.242C330.372 441.837 326.853 443.295 323.183 443.295ZM287.619 393.894V429.457H323.183V393.894H287.619Z" fill="black"/>
<path d="M224.381 443.295H188.817C185.147 443.295 181.628 441.837 179.032 439.242C176.437 436.647 174.979 433.127 174.979 429.457V393.894C174.979 390.224 176.437 386.704 179.032 384.109C181.628 381.514 185.147 380.056 188.817 380.056H224.381C228.051 380.056 231.57 381.514 234.165 384.109C236.761 386.704 238.218 390.224 238.218 393.894V429.457C238.218 433.127 236.761 436.647 234.165 439.242C231.57 441.837 228.051 443.295 224.381 443.295ZM188.817 393.894V429.457H224.381V393.894H188.817Z" fill="black"/>
<path d="M125.509 443.295H89.946C86.276 443.295 82.7563 441.837 80.1612 439.242C77.5661 436.647 76.1082 433.127 76.1082 429.457V393.894C76.1082 390.224 77.5661 386.704 80.1612 384.109C82.7563 381.514 86.276 380.056 89.946 380.056H125.509C129.179 380.056 132.699 381.514 135.294 384.109C137.889 386.704 139.347 390.224 139.347 393.894V429.457C139.347 433.127 137.889 436.647 135.294 439.242C132.699 441.837 129.179 443.295 125.509 443.295ZM89.946 393.894V429.457H125.509V393.894H89.946Z" fill="black"/>
</svg>
