<svg width="512" height="512" viewBox="0 0 512 512" fill="none" xmlns="http://www.w3.org/2000/svg">
<g clip-path="url(#clip0)">
<path d="M220 0H20C8.95312 0 0 8.95312 0 20V220C0 231.047 8.95312 240 20 240H220C231.047 240 240 231.047 240 220V20C240 8.95312 231.047 0 220 0ZM200 200H40V40H200V200ZM499.656 273.523C492.184 270.426 483.578 272.137 477.859 277.855L277.859 477.855C272.137 483.578 270.426 492.18 273.523 499.652C276.621 507.129 283.91 512 292 512H492C503.047 512 512 503.047 512 492V292C512 283.91 507.129 276.617 499.656 273.523ZM472 472H340.285L472 340.285V472ZM392 240C458.168 240 512 186.168 512 120C512 53.832 458.168 0 392 0C325.832 0 272 53.832 272 120C272 186.168 325.832 240 392 240ZM392 40C436.113 40 472 75.8867 472 120C472 164.113 436.113 200 392 200C347.887 200 312 164.113 312 120C312 75.8867 347.887 40 392 40ZM234.141 306.145L148.285 392L234.141 477.855C241.953 485.668 241.953 498.332 234.141 506.141C226.332 513.949 213.668 513.953 205.859 506.141L120 420.285L34.1406 506.145C26.332 513.953 13.668 513.953 5.85938 506.145C-1.95312 498.332 -1.95312 485.668 5.85938 477.859L91.7148 392L5.85938 306.145C-1.95312 298.332 -1.95312 285.668 5.85938 277.859C13.668 270.047 26.332 270.047 34.1406 277.859L120 363.715L205.859 277.855C213.668 270.047 226.332 270.047 234.141 277.855C241.953 285.668 241.953 298.332 234.141 306.145Z" fill="black"/>
</g>
<defs>
<clipPath id="clip0">
<rect width="512" height="512" fill="white"/>
</clipPath>
</defs>
</svg>
