<svg width="512" height="512" viewBox="0 0 512 512" fill="none" xmlns="http://www.w3.org/2000/svg">
<g clip-path="url(#clip0)">
<path d="M191.935 0V42.667H234.602V64C249.535 61.867 262.335 61.867 277.269 64V42.667H319.936V0H191.935Z" fill="black"/>
<path d="M401.002 140.8L415.935 125.867L433.002 142.934L462.869 113.067L398.869 49.067L369.002 78.934L386.069 96L366.869 115.2C264.469 53.333 132.202 85.333 72.469 187.733C12.736 290.133 44.735 418.133 145.002 480C245.269 541.867 377.535 509.867 437.269 407.467C490.602 320 475.669 209.067 401.002 140.8ZM255.935 445.867C172.735 445.867 106.602 379.734 106.602 296.534C106.602 213.334 172.735 147.2 255.935 147.2V296.533H405.268C405.269 379.733 339.135 445.867 255.935 445.867Z" fill="black"/>
</g>
<defs>
<clipPath id="clip0">
<rect width="511.478" height="511.478" fill="white"/>
</clipPath>
</defs>
</svg>
