<svg width="512" height="512" viewBox="0 0 512 512" fill="none" xmlns="http://www.w3.org/2000/svg">
<path d="M48 40H64V56H48V40Z" fill="black"/>
<path d="M80 40H96V56H80V40Z" fill="black"/>
<path d="M112 40H128V56H112V40Z" fill="black"/>
<path d="M56 240H232C234.122 240 236.157 239.157 237.657 237.657C239.157 236.157 240 234.122 240 232V104C240 101.878 239.157 99.8434 237.657 98.3431C236.157 96.8429 234.122 96 232 96H56C53.8783 96 51.8434 96.8429 50.3431 98.3431C48.8429 99.8434 48 101.878 48 104V232C48 234.122 48.8429 236.157 50.3431 237.657C51.8434 239.157 53.8783 240 56 240ZM64 112H224V224H64V112Z" fill="black"/>
<path d="M56 392H232C234.122 392 236.157 391.157 237.657 389.657C239.157 388.157 240 386.122 240 384V264C240 261.878 239.157 259.843 237.657 258.343C236.157 256.843 234.122 256 232 256H56C53.8783 256 51.8434 256.843 50.3431 258.343C48.8429 259.843 48 261.878 48 264V384C48 386.122 48.8429 388.157 50.3431 389.657C51.8434 391.157 53.8783 392 56 392ZM64 272H224V376H64V272Z" fill="black"/>
<path d="M376 392H392V408H376V392Z" fill="black"/>
<path d="M440 392H456V408H440V392Z" fill="black"/>
<path d="M416 448C411.757 448 407.687 446.314 404.686 443.314C401.686 440.313 400 436.243 400 432H384C384 440.487 387.371 448.626 393.373 454.627C399.374 460.629 407.513 464 416 464C424.487 464 432.626 460.629 438.627 454.627C444.629 448.626 448 440.487 448 432H432C432 436.243 430.314 440.313 427.314 443.314C424.313 446.314 420.243 448 416 448Z" fill="black"/>
<path d="M180 161.056L124 129.056C122.783 128.353 121.402 127.983 119.996 127.984C118.59 127.985 117.21 128.356 115.993 129.06C114.777 129.764 113.767 130.776 113.066 131.994C112.365 133.213 111.997 134.594 112 136V200C111.997 201.406 112.365 202.787 113.066 204.005C113.767 205.224 114.777 206.236 115.993 206.94C117.21 207.644 118.59 208.015 119.996 208.016C121.402 208.016 122.783 207.647 124 206.944L180 174.944C181.224 174.244 182.241 173.233 182.948 172.014C183.655 170.794 184.027 169.41 184.027 168C184.027 166.59 183.655 165.206 182.948 163.986C182.241 162.767 181.224 161.756 180 161.056V161.056ZM128 186.208V149.792L159.872 168L128 186.208Z" fill="black"/>
<path d="M424 248C425.522 248.001 427.012 247.567 428.296 246.751C429.58 245.935 430.604 244.769 431.249 243.391C431.894 242.013 432.133 240.479 431.937 238.97C431.741 237.462 431.119 236.04 430.144 234.872L390.144 186.872C389.432 186.018 388.551 185.321 387.555 184.826C386.559 184.332 385.471 184.05 384.36 184C383.248 183.932 382.135 184.106 381.096 184.509C380.058 184.912 379.119 185.536 378.344 186.336L366.608 198.08L350.072 178.8C349.299 177.96 348.361 177.289 347.316 176.83C346.271 176.371 345.141 176.134 344 176.134C342.859 176.134 341.729 176.371 340.684 176.83C339.639 177.289 338.701 177.96 337.928 178.8L289.928 234.8C288.934 235.962 288.294 237.384 288.084 238.898C287.873 240.412 288.101 241.954 288.74 243.343C289.378 244.732 290.402 245.909 291.688 246.734C292.975 247.559 294.471 247.998 296 248H424ZM313.392 232L344 196.288L374.608 232H313.392ZM383.464 203.848L406.92 232H395.68L377.048 210.264L383.464 203.848Z" fill="black"/>
<path d="M488 16H24C21.8783 16 19.8434 16.8429 18.3431 18.3431C16.8429 19.8434 16 21.8783 16 24V416C16 418.122 16.8429 420.157 18.3431 421.657C19.8434 423.157 21.8783 424 24 424H336.408C338.477 444.407 348.305 463.24 363.863 476.608C379.421 489.976 399.519 496.858 420.005 495.831C440.492 494.804 459.801 485.947 473.944 471.09C488.086 456.234 495.982 436.512 496 416V24C496 21.8783 495.157 19.8434 493.657 18.3431C492.157 16.8429 490.122 16 488 16V16ZM416 480C403.342 480 390.968 476.246 380.444 469.214C369.919 462.182 361.716 452.186 356.872 440.492C352.028 428.797 350.76 415.929 353.23 403.514C355.699 391.099 361.795 379.696 370.745 370.745C379.696 361.795 391.099 355.699 403.514 353.23C415.929 350.76 428.797 352.028 440.492 356.872C452.186 361.716 462.182 369.919 469.214 380.444C476.246 390.968 480 403.342 480 416C479.981 432.968 473.232 449.236 461.234 461.234C449.236 473.232 432.968 479.981 416 480ZM346.824 376H272V112H448V342.728C430.001 334.823 409.715 333.848 391.04 339.989C372.366 346.13 356.619 358.955 346.824 376V376ZM480 368.208C475.449 362.13 470.062 356.725 464 352.152V104C464 101.878 463.157 99.8434 461.657 98.3431C460.157 96.8429 458.122 96 456 96H264C261.878 96 259.843 96.8429 258.343 98.3431C256.843 99.8434 256 101.878 256 104V384C256 386.122 256.843 388.157 258.343 389.657C259.843 391.157 261.878 392 264 392H339.688C338.045 397.206 336.946 402.568 336.408 408H32V80H480V368.208ZM480 64H32V32H480V64Z" fill="black"/>
<path d="M80 288H208V304H80V288Z" fill="black"/>
<path d="M80 320H208V336H80V320Z" fill="black"/>
</svg>
